<svg xmlns="http://www.w3.org/2000/svg" version="1.1" xmlns:xlink="http://www.w3.org/1999/xlink" xmlns:svgjs="http://svgjs.dev/svgjs" width="1500" height="1500" viewBox="0 0 1500 1500"><rect width="1500" height="1500" fill="#000000"></rect><g transform="matrix(0.6666666666666666,0,0,0.6666666666666666,249.39393939393938,596.9502089408775)"><svg viewBox="0 0 396 121" data-background-color="#ffffff" preserveAspectRatio="xMidYMid meet" height="458" width="1500" xmlns="http://www.w3.org/2000/svg" xmlns:xlink="http://www.w3.org/1999/xlink"><g id="tight-bounds" transform="matrix(1,0,0,1,0.2400000000000091,0.1518276795431177)"><svg viewBox="0 0 395.52 120.69634464091372" height="120.69634464091372" width="395.52"><g><svg viewBox="0 0 568.269094864836 173.4122232063773" height="120.69634464091372" width="395.52"><g transform="matrix(1,0,0,1,172.7490948648361,0)"><svg viewBox="0 0 395.5199999999999 173.4122232063773" height="173.4122232063773" width="395.5199999999999"><g id="textblocktransform"><svg viewBox="0 0 395.5199999999999 173.4122232063773" height="173.4122232063773" width="395.5199999999999" id="textblock"><g><svg viewBox="0 0 395.5199999999999 173.4122232063773" height="173.4122232063773" width="395.5199999999999"><g transform="matrix(1,0,0,1,0,0)"><svg width="395.5199999999999" viewBox="3 -35.5 82.69 36.26" height="173.4122232063773" data-palette-color="#3ca6ff"><path d="M37.99-25L37.99 0 31.01 0 31.01-25Q31.01-25.73 30.73-26.37 30.44-27 29.97-27.48 29.49-27.95 28.86-28.22 28.22-28.49 27.49-28.49L27.49-28.49Q26.76-28.49 26.12-28.22 25.49-27.95 25.01-27.48 24.54-27 24.27-26.37 24-25.73 24-25L24-25 24 0 16.99 0 16.99-25Q16.99-25.73 16.72-26.37 16.46-27 15.98-27.48 15.5-27.95 14.87-28.22 14.23-28.49 13.5-28.49L13.5-28.49Q12.77-28.49 12.13-28.22 11.5-27.95 11.02-27.48 10.55-27 10.28-26.37 10.01-25.73 10.01-25L10.01-25 10.01 0 3 0 3-25Q3-27.17 3.82-29.09 4.64-31.01 6.07-32.43 7.5-33.86 9.41-34.68 11.33-35.5 13.5-35.5L13.5-35.5Q15.45-35.5 17.26-34.8 19.07-34.11 20.51-32.79L20.51-32.79Q21.95-34.11 23.74-34.8 25.54-35.5 27.49-35.5L27.49-35.5Q29.66-35.5 31.58-34.68 33.5-33.86 34.92-32.43 36.35-31.01 37.17-29.09 37.99-27.17 37.99-25L37.99-25ZM51.24-35.01L51.24 0 44.24 0 44.24-35.01 51.24-35.01ZM81.98-9.69L85.69-3.59Q83.25-1.49 80.22-0.37 77.19 0.76 73.95 0.76L73.95 0.76Q71.45 0.76 69.15 0.11 66.84-0.54 64.83-1.72 62.81-2.91 61.15-4.57 59.49-6.23 58.31-8.24 57.12-10.25 56.48-12.56 55.83-14.87 55.83-17.36L55.83-17.36Q55.83-19.85 56.48-22.17 57.12-24.49 58.31-26.5 59.49-28.52 61.15-30.18 62.81-31.84 64.83-33.02 66.84-34.2 69.15-34.85 71.45-35.5 73.95-35.5L73.95-35.5Q77.19-35.5 80.22-34.39 83.25-33.28 85.69-31.15L85.69-31.15 81.98-25.05Q80.44-26.71 78.34-27.6 76.24-28.49 73.95-28.49L73.95-28.49Q71.63-28.49 69.6-27.61 67.57-26.73 66.06-25.23 64.55-23.73 63.67-21.69 62.79-19.65 62.79-17.36L62.79-17.36Q62.79-15.06 63.67-13.05 64.55-11.04 66.06-9.52 67.57-8.01 69.6-7.13 71.63-6.25 73.95-6.25L73.95-6.25Q76.24-6.25 78.34-7.14 80.44-8.03 81.98-9.69L81.98-9.69Z" opacity="1" transform="matrix(1,0,0,1,0,0)" fill="#ffffff" class="wordmark-text-0" data-fill-palette-color="primary" id="text-0"></path></svg></g></svg></g></svg></g></svg></g><g transform="matrix(1,0,0,1,0,20.80079617360495)"><svg viewBox="0 0 131.8106308591674 131.8106308591674" height="131.8106308591674" width="131.8106308591674"><g data-palette-color="#3ca6ff"><rect width="36.028239101505754" height="131.8106308591674" fill="#ffffff" stroke="transparent" data-fill-palette-color="accent" x="0" fill-opacity="0.5"></rect><rect width="36.028239101505754" height="131.8106308591674" fill="#ffffff" stroke="transparent" data-fill-palette-color="accent" x="43.9368769530558" fill-opacity="0.75"></rect><rect width="36.028239101505754" height="131.8106308591674" fill="#ffffff" stroke="transparent" data-fill-palette-color="accent" x="87.8737539061116" fill-opacity="1"></rect></g></svg></g></svg></g><defs></defs></svg><rect width="395.52" height="120.69634464091372" fill="none" stroke="none" visibility="hidden"></rect></g></svg></g></svg>